<svg xmlns="http://www.w3.org/2000/svg" fill="none" viewBox="0 0 256 256">
    <g>
        <path d="M132.41,247.97c-12.62,0-25.25,0.17-37.87-0.04c-16.39-0.28-31.26-5.48-44.73-14.75c-5.48-3.77-10.45-8.17-14.66-13.31
            c-9.33-11.39-15.48-24.25-17.95-38.85c-1.63-9.65-1.23-19.34-1.02-29.03c0.15-6.93,1-13.8,2.61-20.53
            c1.25-5.24,3.04-10.35,4.53-15.54c0.36-1.26,0.66-2.59,0.66-3.89c0.04-20.91-0.01-41.83,0.04-62.74
            c0.02-6.92,2.12-13.19,7.08-18.13c4.7-4.69,10.61-7.02,17.23-7.09c3.82-0.04,7.45,1.25,10.94,2.75
            C72.76,32.6,86.23,38.42,99.72,44.2c0.48,0.21,1.15,0.24,1.66,0.09c6.29-1.86,12.71-2.99,19.22-3.63
            c9.12-0.89,18.22-0.94,27.25,0.75c4.49,0.84,8.95,1.85,13.4,2.89c1.25,0.29,2.33,0.22,3.49-0.28c8.47-3.67,16.94-7.33,25.44-10.94
            c6.12-2.6,12.22-5.26,18.42-7.66c10.35-4.01,21.29,1.47,25.8,7.39c4.44,5.81,6.24,12.38,5.3,19.71c-0.9,7.02-1.63,14.06-2.43,21.09
            c-0.89,7.86-1.78,15.71-2.67,23.57c-0.46,4.05-0.95,8.1-1.34,12.16c-0.09,0.88,0.02,1.86,0.32,2.68
            c4.31,11.86,6.33,24.12,6.4,36.71c0.07,12.37,0.14,24.75-0.09,37.12c-0.19,9.83-2.81,19.07-7.47,27.8
            c-3.93,7.35-9.03,13.66-15.33,19.03c-7.13,6.08-15.25,10.27-24.29,12.82c-4.69,1.32-9.45,2.08-14.27,2.19
            c-10.12,0.23-20.24,0.23-30.36,0.3c-5.25,0.03-10.5,0.01-15.75,0.01C132.41,247.99,132.41,247.98,132.41,247.97z M135.93,231.95
            c11.83,0,23.67,0.01,35.5-0.01c1.95,0,3.91-0.14,5.86-0.21c5.06-0.18,9.96-1.08,14.78-2.7c3.91-1.32,7.56-3.18,10.87-5.5
            c6.37-4.46,11.49-10.1,15.25-17.05c3.77-6.95,5.67-14.3,5.71-22.11c0.06-13.29,0-26.58-0.25-39.86c-0.08-4.47-0.66-8.96-1.39-13.38
            c-0.89-5.37-2.41-10.61-4.35-15.72c-0.49-1.3-0.86-2.72-0.88-4.09c-0.03-1.86,0.33-3.72,0.53-5.59c0.79-7.07,1.59-14.14,2.38-21.21
            c0.63-5.62,1.24-11.25,1.85-16.88c0.68-6.29,1.46-12.57,2.01-18.87c0.45-5.05-3.41-8.88-8.46-8.49c-1.45,0.11-2.93,0.61-4.29,1.19
            c-15.34,6.55-30.65,13.15-45.99,19.69c-0.8,0.34-1.95,0.42-2.75,0.13c-6.37-2.3-12.96-3.69-19.65-4.47
            c-5.2-0.6-10.43-0.81-15.69-0.55c-8.74,0.44-17.26,2-25.59,4.59c-1.29,0.4-2.39,0.37-3.6-0.15c-11.19-4.82-22.39-9.61-33.6-14.4
            c-4.4-1.88-8.75-3.88-13.23-5.53c-4.58-1.69-8.82,0.25-10.3,4.5c-0.43,1.23-0.57,2.61-0.57,3.92c-0.03,21.79-0.01,43.58-0.05,65.37
            c0,1.18-0.24,2.4-0.6,3.53c-1.21,3.89-2.59,7.72-3.78,11.61c-1.63,5.31-2.66,10.78-3.02,16.29c-0.47,7.35-0.56,14.73-0.52,22.1
            c0.02,3.85,0.35,7.76,1.05,11.54c2.53,13.58,8.85,25.17,18.87,34.71c8.75,8.33,19.06,13.79,30.89,16.1
            c4.71,0.92,9.58,1.35,14.38,1.42C110.18,232.07,123.06,231.95,135.93,231.95z"/>
        <path class="st0" d="M135.93,231.95c-12.87,0-25.75,0.13-38.62-0.06c-4.8-0.07-9.67-0.51-14.38-1.42
            c-11.84-2.3-22.14-7.77-30.89-16.1c-10.02-9.54-16.34-21.13-18.87-34.71c-0.71-3.79-1.04-7.69-1.05-11.54
            c-0.03-7.37,0.05-14.75,0.52-22.1c0.35-5.51,1.39-10.98,3.02-16.29c1.19-3.89,2.57-7.73,3.78-11.61c0.35-1.13,0.59-2.35,0.6-3.53
            c0.03-21.79,0.02-43.58,0.05-65.37c0-1.31,0.15-2.69,0.57-3.92c1.48-4.25,5.72-6.19,10.3-4.5c4.48,1.65,8.83,3.66,13.23,5.53
            c11.21,4.79,22.41,9.58,33.6,14.4c1.21,0.52,2.32,0.55,3.6,0.15c8.34-2.59,16.85-4.15,25.59-4.59c5.26-0.26,10.49-0.05,15.69,0.55
            c6.69,0.78,13.28,2.17,19.65,4.47c0.81,0.29,1.95,0.21,2.75-0.13c15.34-6.53,30.65-13.14,45.99-19.69
            c1.36-0.58,2.84-1.08,4.29-1.19c5.05-0.39,8.91,3.44,8.46,8.49c-0.56,6.3-1.33,12.58-2.01,18.87c-0.61,5.63-1.23,11.25-1.85,16.88
            c-0.79,7.07-1.59,14.14-2.38,21.21c-0.21,1.86-0.56,3.73-0.53,5.59c0.02,1.37,0.39,2.8,0.88,4.09c1.95,5.11,3.46,10.34,4.35,15.72
            c0.73,4.42,1.31,8.91,1.39,13.38c0.24,13.29,0.31,26.58,0.25,39.86c-0.04,7.8-1.94,15.15-5.71,22.11
            c-3.77,6.95-8.88,12.59-15.25,17.05c-3.31,2.31-6.96,4.17-10.87,5.5c-4.82,1.63-9.72,2.52-14.78,2.7
            c-1.95,0.07-3.91,0.21-5.86,0.21C159.6,231.96,147.77,231.95,135.93,231.95z M108.36,171.15c0.36,0.32,0.62,0.52,0.85,0.74
            c3.53,3.54,7.05,7.08,10.59,10.61c1.68,1.68,3.33,3.39,5.11,4.96c1.81,1.6,3.86,1.63,5.86,0.28c0.55-0.37,1.08-0.78,1.59-1.21
            c7.13-5.95,14.27-11.89,21.38-17.86c0.73-0.61,1.43-1.29,1.99-2.05c1.57-2.13,1.02-4.97-1.17-6.46c-1.91-1.3-4.06-1.04-6.38,0.89
            c-6.31,5.24-12.6,10.51-18.87,15.8c-0.71,0.6-1.14,0.67-1.84-0.05c-4.86-4.92-9.85-9.71-14.63-14.7c-3.53-3.69-6.62-3.68-9.78,0.49
            c-3.02,3.98-6.23,7.82-9.35,11.72c-1.15,1.43-1.16,1.43-2.07-0.09c-1.64-2.75-3.27-5.51-4.95-8.24c-1.02-1.67-1.96-3.41-3.19-4.91
            c-2.27-2.75-6.37-2.11-7.77,1.15c-0.78,1.81-0.2,3.51,0.76,5.1c2.12,3.53,4.25,7.06,6.37,10.59c1.61,2.68,3.19,5.37,4.82,8.03
            c0.93,1.51,2.16,2.65,4.08,2.7c1.83,0.05,3.18-0.82,4.27-2.19c2.97-3.7,5.93-7.41,8.9-11.11
            C106.07,173.96,107.19,172.59,108.36,171.15z M96.41,124.16c-0.08-0.02-0.16-0.04-0.24-0.06c-0.14-2.28-0.13-4.59-0.45-6.84
            c-1.06-7.37-7.76-13.06-15.46-13.29c-7.31-0.22-14.32,5.23-15.77,12.41c-0.89,4.4-0.69,8.86-0.28,13.31
            c0.69,7.6,6.6,13.41,14.49,14.29c6.93,0.77,14.28-3.89,16.33-10.76C95.89,130.32,95.97,127.19,96.41,124.16z M168.25,125.26
            c-0.22-3.45-0.19-5.8-0.55-8.09c-1.19-7.48-7.92-13.08-15.66-13.21c-7.33-0.12-14.15,5.33-15.59,12.63
            c-0.85,4.32-0.66,8.7-0.25,13.06c0.71,7.66,6.53,13.4,14.46,14.32c6.95,0.81,14.33-3.9,16.4-10.84
            C167.9,130.27,167.98,127.18,168.25,125.26z M208.56,152.05c0.02-2.8-2.26-4.95-5.04-4.54c-1.2,0.17-2.38,0.72-3.49,1.26
            c-5.86,2.89-11.7,5.81-17.53,8.76c-1.85,0.94-3.77,1.82-5.42,3.05c-2.36,1.77-2.23,5.18,0.08,7.03c1.76,1.41,3.66,1.19,5.52,0.28
            c3.85-1.87,7.68-3.81,11.51-5.72c3.76-1.88,7.52-3.74,11.26-5.67C207.24,155.58,208.58,154.27,208.56,152.05z M175.45,180.02
            c0.02,2.55,1.7,3.82,3.72,4.83c7.18,3.59,14.36,7.18,21.55,10.76c0.63,0.31,1.29,0.6,1.96,0.79c2.21,0.61,4.37-0.34,5.4-2.31
            c1.02-1.94,0.52-4.27-1.31-5.71c-0.71-0.56-1.53-1.01-2.34-1.42c-5.69-2.86-11.38-5.7-17.08-8.53c-1.86-0.93-3.69-1.96-5.62-2.69
            C178.54,174.55,175.43,176.73,175.45,180.02z M39.46,187.91c-0.02,2.95,2.29,5.02,5.22,4.6c0.77-0.11,1.54-0.39,2.23-0.73
            c3.99-1.96,7.98-3.94,11.94-5.97c1.47-0.75,3.01-1.49,4.26-2.54c2.26-1.91,1.89-5.44-0.57-7.09c-1.68-1.13-3.41-0.92-5.1-0.1
            c-3.22,1.56-6.41,3.18-9.6,4.78c-1.82,0.91-3.68,1.77-5.46,2.75C40.72,184.53,39.41,185.78,39.46,187.91z M64.57,164.11
            c0.03-2.3-1.31-3.69-3.2-4.65c-2.96-1.52-5.94-2.99-8.92-4.47c-2.16-1.07-4.27-2.26-6.5-3.17c-3.54-1.44-6.87,1.1-6.47,4.82
            c0.21,1.89,1.44,3.05,3.03,3.85c4.93,2.5,9.88,4.96,14.83,7.42c0.44,0.22,0.92,0.39,1.4,0.51
            C61.74,169.17,64.51,167.11,64.57,164.11z"/>
        <path class="st1" d="M108.36,171.15c-1.17,1.44-2.3,2.81-3.41,4.2c-2.97,3.7-5.93,7.41-8.9,11.11c-1.1,1.37-2.45,2.24-4.27,2.19
            c-1.92-0.05-3.15-1.19-4.08-2.7c-1.64-2.66-3.22-5.35-4.82-8.03c-2.12-3.53-4.26-7.06-6.37-10.59c-0.95-1.59-1.54-3.29-0.76-5.1
            c1.41-3.26,5.5-3.9,7.77-1.15c1.24,1.5,2.17,3.24,3.19,4.91c1.67,2.73,3.3,5.49,4.95,8.24c0.91,1.52,0.92,1.52,2.07,0.09
            c3.12-3.9,6.33-7.74,9.35-11.72c3.16-4.17,6.25-4.18,9.78-0.49c4.78,5,9.77,9.78,14.63,14.7c0.71,0.72,1.13,0.65,1.84,0.05
            c6.27-5.29,12.56-10.55,18.87-15.8c2.33-1.94,4.47-2.19,6.38-0.89c2.19,1.49,2.74,4.34,1.17,6.46c-0.56,0.76-1.27,1.44-1.99,2.05
            c-7.12,5.97-14.25,11.91-21.38,17.86c-0.51,0.43-1.04,0.83-1.59,1.21c-2,1.35-4.05,1.32-5.86-0.28c-1.78-1.57-3.43-3.28-5.11-4.96
            c-3.54-3.53-7.06-7.08-10.59-10.61C108.99,171.66,108.73,171.46,108.36,171.15z"/>
        <path d="M96.41,124.16c-0.44,3.03-0.52,6.16-1.39,9.06c-2.06,6.87-9.41,11.53-16.33,10.76c-7.89-0.88-13.8-6.69-14.49-14.29
            c-0.4-4.44-0.61-8.91,0.28-13.31c1.45-7.18,8.46-12.63,15.77-12.41c7.7,0.23,14.4,5.92,15.46,13.29c0.33,2.26,0.31,4.56,0.45,6.84
            C96.25,124.12,96.33,124.14,96.41,124.16z"/>
        <path d="M168.25,125.26c-0.27,1.92-0.35,5.01-1.2,7.87c-2.07,6.94-9.45,11.65-16.4,10.84c-7.93-0.92-13.75-6.67-14.46-14.32
            c-0.41-4.36-0.6-8.74,0.25-13.06c1.44-7.3,8.26-12.75,15.59-12.63c7.74,0.12,14.47,5.72,15.66,13.21
            C168.06,119.46,168.03,121.81,168.25,125.26z"/>
        <path class="st2" d="M208.56,152.05c0.02,2.22-1.32,3.53-3.1,4.45c-3.73,1.93-7.5,3.79-11.26,5.67c-3.83,1.92-7.66,3.85-11.51,5.72
            c-1.86,0.9-3.76,1.13-5.52-0.28c-2.3-1.85-2.44-5.26-0.08-7.03c1.65-1.23,3.57-2.11,5.42-3.05c5.83-2.95,11.67-5.87,17.53-8.76
            c1.11-0.55,2.29-1.09,3.49-1.26C206.3,147.1,208.58,149.24,208.56,152.05z"/>
        <path class="st2" d="M175.45,180.02c-0.02-3.29,3.09-5.47,6.28-4.27c1.94,0.73,3.76,1.76,5.62,2.69c5.7,2.83,11.39,5.67,17.08,8.53
            c0.81,0.41,1.63,0.86,2.34,1.42c1.83,1.44,2.32,3.76,1.31,5.71c-1.03,1.97-3.19,2.91-5.4,2.31c-0.68-0.19-1.33-0.48-1.96-0.79
            c-7.19-3.58-14.37-7.17-21.55-10.76C177.15,183.84,175.47,182.57,175.45,180.02z"/>
        <path class="st2" d="M39.46,187.91c-0.05-2.13,1.26-3.38,2.92-4.3c1.78-0.99,3.63-1.84,5.46-2.75c3.2-1.6,6.39-3.22,9.6-4.78
            c1.69-0.82,3.42-1.03,5.1,0.1c2.46,1.66,2.83,5.18,0.57,7.09c-1.25,1.05-2.79,1.78-4.26,2.54c-3.96,2.03-7.95,4.01-11.94,5.97
            c-0.7,0.34-1.47,0.62-2.23,0.73C41.74,192.93,39.44,190.87,39.46,187.91z"/>
        <path class="st2" d="M64.57,164.11c-0.06,2.99-2.83,5.06-5.82,4.32c-0.48-0.12-0.96-0.29-1.4-0.51c-4.95-2.46-9.9-4.93-14.83-7.42
            c-1.58-0.8-2.82-1.96-3.03-3.85c-0.41-3.72,2.93-6.26,6.47-4.82c2.23,0.91,4.34,2.1,6.5,3.17c2.98,1.48,5.96,2.95,8.92,4.47
            C63.26,160.43,64.61,161.81,64.57,164.11z"/>
    </g>
    <style>
        .st0{fill:#FFC95C;}
        .st1{fill:#562A13;}
        .st2{fill:#8E4A12;}
    </style>
</svg>
